M48
INCH
T29C0.030
T28C0.038
T27C0.028
%
T27
X018000Y008500
X021000Y008500
X018000Y007500
X021000Y007500
X002000Y007000
X005000Y007000
X005000Y008000
X005000Y009000
X002000Y010000
X002000Y009000
X002000Y008000
X005000Y010000
X018000Y006500
X018000Y005500
X021000Y006500
X021000Y005500
T29
X018000Y004000
X019000Y004000
X023000Y008500
X023000Y004500
X023000Y007500
X023000Y011500
X002000Y004000
X001000Y005500
X002500Y003000
X001000Y001000
X002000Y005500
X003000Y005500
X004000Y001000
X005000Y001000
X008000Y001000
X009000Y001000
X012500Y001500
X011500Y001500
X005000Y004000
X006000Y005500
X007500Y004000
X006500Y004000
X005500Y003000
X011500Y005500
X007500Y009500
X007500Y012500
X007500Y005500
X007500Y008500
X009000Y004000
X012500Y004500
X011500Y004500
X012500Y005500
X012500Y008500
X011500Y008500
X016000Y005000
X015000Y005000
X022000Y004000
X023000Y002500
X022000Y002500
X018000Y001000
X014000Y003500
X014000Y002500
X017000Y003500
X017000Y002500
T28
X018000Y010000
X019000Y010000
X002000Y012000
X003000Y012000
X001000Y002500
X001000Y003500
X012500Y009500
X011500Y009500
X009000Y007000
X009000Y006000
M30
