G04 start of page 8 for group -4079 idx -4079 *
G04 Title: (unknown), topsilk *
G04 Creator: pcb 20110918 *
G04 CreationDate: Sat 15 Jun 2013 04:56:44 AM GMT UTC *
G04 For: commonadmin *
G04 Format: Gerber/RS-274X *
G04 PCB-Dimensions: 600000 500000 *
G04 PCB-Coordinate-Origin: lower left *
%MOIN*%
%FSLAX25Y25*%
%LNTOPSILK*%
%ADD36C,0.0100*%
G54D36*X15000Y105000D02*Y65000D01*
X55000D01*
Y105000D01*
X15000D02*X30000D01*
X40000D02*X55000D01*
X30000D02*G75*G03X40000Y105000I5000J0D01*G01*
X15000Y125000D02*Y115000D01*
X35000D01*
Y125000D01*
X15000D01*
Y115000D02*X25000D01*
Y125000D01*
X50000Y10000D02*X57500D01*
X72500D02*X80000D01*
X57500Y12500D02*X72500D01*
Y7500D01*
X57500D01*
Y12500D01*
X82000Y40000D02*X86000D01*
X84000Y42000D02*Y38000D01*
X54000Y40000D02*X58000D01*
X80000D02*G75*G03X80000Y40000I-10000J0D01*G01*
X90000Y17500D02*Y10000D01*
Y40000D02*Y32500D01*
X87500D02*Y17500D01*
Y32500D02*X92500D01*
Y17500D01*
X87500D02*X92500D01*
X75000Y102500D02*Y95000D01*
Y125000D02*Y117500D01*
X72500D02*Y102500D01*
Y117500D02*X77500D01*
Y102500D01*
X72500D02*X77500D01*
X130000Y100000D02*Y90000D01*
X110000Y100000D02*X130000D01*
X110000D02*Y90000D01*
X130000D01*
X120000Y100000D02*X130000D01*
X120000D02*Y90000D01*
X75000Y62500D02*Y55000D01*
Y85000D02*Y77500D01*
X72500D02*Y62500D01*
Y77500D02*X77500D01*
Y62500D01*
X72500D02*X77500D01*
X20000Y40000D02*X27500D01*
X42500D02*X50000D01*
X27500Y42500D02*X42500D01*
Y37500D01*
X27500D01*
Y42500D01*
X-1000Y55000D02*X3000D01*
X1000Y57000D02*Y53000D01*
X27000Y55000D02*X31000D01*
X5000D02*G75*G03X5000Y55000I10000J0D01*G01*
X30000D02*X37500D01*
X52500D02*X60000D01*
X37500Y57500D02*X52500D01*
Y52500D01*
X37500D02*X52500D01*
X37500Y57500D02*Y52500D01*
X47500Y30000D02*X55000D01*
X25000D02*X32500D01*
Y27500D02*X47500D01*
X32500Y32500D02*Y27500D01*
Y32500D02*X47500D01*
Y27500D01*
X32500Y10000D02*X40000D01*
X10000D02*X17500D01*
Y7500D02*X32500D01*
X17500Y12500D02*Y7500D01*
Y12500D02*X32500D01*
Y7500D01*
X5000Y20000D02*X15000D01*
Y40000D02*Y20000D01*
X5000Y40000D02*X15000D01*
X5000D02*Y20000D01*
X15000Y30000D02*Y20000D01*
X5000Y30000D02*X15000D01*
X85000Y75000D02*X95000D01*
X85000D02*Y55000D01*
X95000D01*
Y75000D02*Y55000D01*
X85000Y75000D02*Y65000D01*
X95000D01*
X125000Y22500D02*Y15000D01*
Y45000D02*Y37500D01*
X122500D02*Y22500D01*
Y37500D02*X127500D01*
Y22500D01*
X122500D02*X127500D01*
X115000D02*Y15000D01*
Y45000D02*Y37500D01*
X112500D02*Y22500D01*
Y37500D02*X117500D01*
Y22500D01*
X112500D02*X117500D01*
X125000Y62500D02*Y55000D01*
Y85000D02*Y77500D01*
X122500D02*Y62500D01*
Y77500D02*X127500D01*
Y62500D01*
X122500D02*X127500D01*
X115000D02*Y55000D01*
Y85000D02*Y77500D01*
X112500D02*Y62500D01*
Y77500D02*X117500D01*
Y62500D01*
X112500D02*X117500D01*
X175000Y90000D02*Y50000D01*
X215000D01*
Y90000D01*
X175000D02*X190000D01*
X200000D02*X215000D01*
X190000D02*G75*G03X200000Y90000I5000J0D01*G01*
X175000Y105000D02*Y95000D01*
X195000D01*
Y105000D01*
X175000D01*
Y95000D02*X185000D01*
Y105000D01*
X167000Y50000D02*X171000D01*
X169000Y52000D02*Y48000D01*
X139000Y50000D02*X143000D01*
X165000D02*G75*G03X165000Y50000I-10000J0D01*G01*
X140000Y35000D02*X147500D01*
X162500D02*X170000D01*
X147500Y37500D02*X162500D01*
Y32500D01*
X147500D02*X162500D01*
X147500Y37500D02*Y32500D01*
X162500Y25000D02*X170000D01*
X140000D02*X147500D01*
Y22500D02*X162500D01*
X147500Y27500D02*Y22500D01*
Y27500D02*X162500D01*
Y22500D01*
X190000Y40000D02*X197500D01*
X212500D02*X220000D01*
X197500Y42500D02*X212500D01*
Y37500D01*
X197500D01*
Y42500D01*
X180000Y40000D02*Y32500D01*
Y17500D02*Y10000D01*
X182500Y32500D02*Y17500D01*
X177500D02*X182500D01*
X177500Y32500D02*Y17500D01*
Y32500D02*X182500D01*
X237000Y25000D02*X241000D01*
X239000Y27000D02*Y23000D01*
X209000Y25000D02*X213000D01*
X235000D02*G75*G03X235000Y25000I-10000J0D01*G01*
X230000Y92500D02*Y85000D01*
Y115000D02*Y107500D01*
X227500D02*Y92500D01*
Y107500D02*X232500D01*
Y92500D01*
X227500D02*X232500D01*
X230000Y52500D02*Y45000D01*
Y75000D02*Y67500D01*
X227500D02*Y52500D01*
Y67500D02*X232500D01*
Y52500D01*
X227500D02*X232500D01*
X10500Y105000D02*X14000D01*
X10500D02*X10000Y104500D01*
Y103500D01*
X10500Y103000D01*
X14000D01*
X13200Y101800D02*X14000Y101000D01*
X10000D02*X14000D01*
X10000Y101800D02*Y100300D01*
X36000Y125000D02*Y123000D01*
X36500Y122500D01*
X37700D01*
X38200Y123000D02*X37700Y122500D01*
X38200Y124500D02*Y123000D01*
X36000Y124500D02*X40000D01*
Y125000D02*Y123000D01*
X39500Y122500D01*
X38700D02*X39500D01*
X38200Y123000D02*X38700Y122500D01*
X39200Y121300D02*X40000Y120500D01*
X36000D02*X40000D01*
X36000Y121300D02*Y119800D01*
X15200Y45500D02*X16500D01*
X14500Y46200D02*X15200Y45500D01*
X14500Y48800D02*Y46200D01*
Y48800D02*X15200Y49500D01*
X16500D01*
X17700D02*X19700D01*
X17700D02*Y47500D01*
X18200Y48000D01*
X19200D01*
X19700Y47500D01*
Y46000D01*
X19200Y45500D02*X19700Y46000D01*
X18200Y45500D02*X19200D01*
X17700Y46000D02*X18200Y45500D01*
X35200Y50500D02*X36500D01*
X34500Y51200D02*X35200Y50500D01*
X34500Y53800D02*Y51200D01*
Y53800D02*X35200Y54500D01*
X36500D01*
X37700Y54000D02*X38200Y54500D01*
X39700D01*
X40200Y54000D01*
Y53000D01*
X37700Y50500D02*X40200Y53000D01*
X37700Y50500D02*X40200D01*
X28500Y35500D02*X30500D01*
X28500D02*X28000Y36000D01*
Y37000D02*Y36000D01*
X28500Y37500D02*X28000Y37000D01*
X28500Y37500D02*X30000D01*
Y39500D02*Y35500D01*
X29200Y37500D02*X28000Y39500D01*
X26800Y38000D02*X24800Y35500D01*
X24300Y38000D02*X26800D01*
X24800Y39500D02*Y35500D01*
X170500Y90000D02*X174000D01*
X170500D02*X170000Y89500D01*
Y88500D01*
X170500Y88000D01*
X174000D01*
X173500Y86800D02*X174000Y86300D01*
Y84800D01*
X173500Y84300D01*
X172500D02*X173500D01*
X170000Y86800D02*X172500Y84300D01*
X170000Y86800D02*Y84300D01*
X80500Y121500D02*Y119500D01*
Y121500D02*X81000Y122000D01*
X82000D01*
X82500Y121500D02*X82000Y122000D01*
X82500Y121500D02*Y120000D01*
X80500D02*X84500D01*
X82500Y120800D02*X84500Y122000D01*
X81300Y123200D02*X80500Y124000D01*
X84500D01*
Y124700D02*Y123200D01*
X196000Y105000D02*Y103000D01*
X196500Y102500D01*
X197700D01*
X198200Y103000D02*X197700Y102500D01*
X198200Y104500D02*Y103000D01*
X196000Y104500D02*X200000D01*
Y105000D02*Y103000D01*
X199500Y102500D01*
X198700D02*X199500D01*
X198200Y103000D02*X198700Y102500D01*
X199500Y101300D02*X200000Y100800D01*
Y99300D01*
X199500Y98800D01*
X198500D02*X199500D01*
X196000Y101300D02*X198500Y98800D01*
X196000Y101300D02*Y98800D01*
X134000Y92000D02*Y90700D01*
X133300Y90000D02*X134000Y90700D01*
X130700Y90000D02*X133300D01*
X130700D02*X130000Y90700D01*
Y92000D02*Y90700D01*
X130500Y93200D02*X133500D01*
X130500D02*X130000Y93700D01*
Y94700D02*Y93700D01*
Y94700D02*X130500Y95200D01*
X133500D01*
X134000Y94700D02*X133500Y95200D01*
X134000Y94700D02*Y93700D01*
X133500Y93200D02*X134000Y93700D01*
X130000Y96400D02*X134000D01*
X130000D02*X134000Y98900D01*
X130000D02*X134000D01*
X130000Y100100D02*X134000D01*
X130000D02*X134000Y102600D01*
X130000D02*X134000D01*
X130500Y103800D02*X130000Y104300D01*
Y105800D02*Y104300D01*
Y105800D02*X130500Y106300D01*
X131500D01*
X134000Y103800D02*X131500Y106300D01*
X134000D02*Y103800D01*
X205200Y35500D02*X206500D01*
X204500Y36200D02*X205200Y35500D01*
X204500Y38800D02*Y36200D01*
Y38800D02*X205200Y39500D01*
X206500D01*
X207700Y37000D02*X209700Y39500D01*
X207700Y37000D02*X210200D01*
X209700Y39500D02*Y35500D01*
X223500Y34500D02*X224800D01*
X225500Y33800D02*X224800Y34500D01*
X225500Y33800D02*Y31200D01*
X224800Y30500D01*
X223500D02*X224800D01*
X222300Y31000D02*X221800Y30500D01*
X220800D02*X221800D01*
X220800D02*X220300Y31000D01*
X220800Y34500D02*X220300Y34000D01*
X220800Y34500D02*X221800D01*
X222300Y34000D02*X221800Y34500D01*
X220800Y32300D02*X221800D01*
X220300Y31800D02*Y31000D01*
Y34000D02*Y32800D01*
X220800Y32300D01*
X220300Y31800D02*X220800Y32300D01*
X230500Y96500D02*Y94500D01*
Y96500D02*X231000Y97000D01*
X232000D01*
X232500Y96500D02*X232000Y97000D01*
X232500Y96500D02*Y95000D01*
X230500D02*X234500D01*
X232500Y95800D02*X234500Y97000D01*
X231300Y98200D02*X230500Y99000D01*
X234500D01*
Y99700D02*Y98200D01*
X231000Y100900D02*X230500Y101400D01*
Y102900D02*Y101400D01*
Y102900D02*X231000Y103400D01*
X232000D01*
X234500Y100900D02*X232000Y103400D01*
X234500D02*Y100900D01*
X230500Y56500D02*Y54500D01*
Y56500D02*X231000Y57000D01*
X232000D01*
X232500Y56500D02*X232000Y57000D01*
X232500Y56500D02*Y55000D01*
X230500D02*X234500D01*
X232500Y55800D02*X234500Y57000D01*
X231300Y58200D02*X230500Y59000D01*
X234500D01*
Y59700D02*Y58200D01*
X231000Y60900D02*X230500Y61400D01*
Y62400D02*Y61400D01*
Y62400D02*X231000Y62900D01*
X234500Y62400D02*X234000Y62900D01*
X234500Y62400D02*Y61400D01*
X234000Y60900D02*X234500Y61400D01*
X232300Y62400D02*Y61400D01*
X231000Y62900D02*X231800D01*
X232800D02*X234000D01*
X232800D02*X232300Y62400D01*
X231800Y62900D02*X232300Y62400D01*
X33500Y10500D02*X35500D01*
X33500D02*X33000Y11000D01*
Y12000D02*Y11000D01*
X33500Y12500D02*X33000Y12000D01*
X33500Y12500D02*X35000D01*
Y14500D02*Y10500D01*
X34200Y12500D02*X33000Y14500D01*
X31300D02*X29300Y10500D01*
X31800D01*
X5700Y16000D02*X7000D01*
X5000Y16700D02*X5700Y16000D01*
X5000Y19300D02*Y16700D01*
Y19300D02*X5700Y20000D01*
X7000D01*
X8200Y19500D02*Y16500D01*
Y19500D02*X8700Y20000D01*
X9700D01*
X10200Y19500D01*
Y16500D01*
X9700Y16000D02*X10200Y16500D01*
X8700Y16000D02*X9700D01*
X8200Y16500D02*X8700Y16000D01*
X11400Y20000D02*Y16000D01*
Y20000D02*X13900Y16000D01*
Y20000D02*Y16000D01*
X15100Y20000D02*Y16000D01*
Y20000D02*X17600Y16000D01*
Y20000D02*Y16000D01*
X18800Y19500D02*X19300Y20000D01*
X20300D01*
X20800Y19500D01*
X20300Y16000D02*X20800Y16500D01*
X19300Y16000D02*X20300D01*
X18800Y16500D02*X19300Y16000D01*
Y18200D02*X20300D01*
X20800Y19500D02*Y18700D01*
Y17700D02*Y16500D01*
Y17700D02*X20300Y18200D01*
X20800Y18700D02*X20300Y18200D01*
X74500Y4500D02*X76500D01*
X77000Y4000D01*
Y3000D01*
X76500Y2500D02*X77000Y3000D01*
X75000Y2500D02*X76500D01*
X75000Y4500D02*Y500D01*
X75800Y2500D02*X77000Y500D01*
X78200Y4500D02*X80200D01*
X78200D02*Y2500D01*
X78700Y3000D01*
X79700D01*
X80200Y2500D01*
Y1000D01*
X79700Y500D02*X80200Y1000D01*
X78700Y500D02*X79700D01*
X78200Y1000D02*X78700Y500D01*
X44500Y34500D02*X46500D01*
X47000Y34000D01*
Y33000D01*
X46500Y32500D02*X47000Y33000D01*
X45000Y32500D02*X46500D01*
X45000Y34500D02*Y30500D01*
X45800Y32500D02*X47000Y30500D01*
X48200Y34000D02*X48700Y34500D01*
X49700D01*
X50200Y34000D01*
X49700Y30500D02*X50200Y31000D01*
X48700Y30500D02*X49700D01*
X48200Y31000D02*X48700Y30500D01*
Y32700D02*X49700D01*
X50200Y34000D02*Y33200D01*
Y32200D02*Y31000D01*
Y32200D02*X49700Y32700D01*
X50200Y33200D02*X49700Y32700D01*
X93000Y54000D02*X94300D01*
X95000Y53300D02*X94300Y54000D01*
X95000Y53300D02*Y50700D01*
X94300Y50000D01*
X93000D02*X94300D01*
X91800Y53500D02*Y50500D01*
X91300Y50000D01*
X90300D02*X91300D01*
X90300D02*X89800Y50500D01*
Y53500D02*Y50500D01*
X90300Y54000D02*X89800Y53500D01*
X90300Y54000D02*X91300D01*
X91800Y53500D02*X91300Y54000D01*
X88600D02*Y50000D01*
X86100Y54000D01*
Y50000D01*
X84900Y54000D02*Y50000D01*
X82400Y54000D01*
Y50000D01*
X81200Y50800D02*X80400Y50000D01*
Y54000D02*Y50000D01*
X79700Y54000D02*X81200D01*
X68500Y49500D02*X69800D01*
X70500Y48800D02*X69800Y49500D01*
X70500Y48800D02*Y46200D01*
X69800Y45500D01*
X68500D02*X69800D01*
X67300Y46300D02*X66500Y45500D01*
Y49500D02*Y45500D01*
X65800Y49500D02*X67300D01*
X80500Y81500D02*Y79500D01*
Y81500D02*X81000Y82000D01*
X82000D01*
X82500Y81500D02*X82000Y82000D01*
X82500Y81500D02*Y80000D01*
X80500D02*X84500D01*
X82500Y80800D02*X84500Y82000D01*
X81000Y83200D02*X80500Y83700D01*
Y85200D02*Y83700D01*
Y85200D02*X81000Y85700D01*
X82000D01*
X84500Y83200D02*X82000Y85700D01*
X84500D02*Y83200D01*
X95500Y36500D02*Y34500D01*
Y36500D02*X96000Y37000D01*
X97000D01*
X97500Y36500D02*X97000Y37000D01*
X97500Y36500D02*Y35000D01*
X95500D02*X99500D01*
X97500Y35800D02*X99500Y37000D01*
X95500Y39700D02*X96000Y40200D01*
X95500Y39700D02*Y38700D01*
X96000Y38200D02*X95500Y38700D01*
X96000Y38200D02*X99000D01*
X99500Y38700D01*
X97300Y39700D02*X97800Y40200D01*
X97300Y39700D02*Y38200D01*
X99500Y39700D02*Y38700D01*
Y39700D02*X99000Y40200D01*
X97800D02*X99000D01*
X125500Y26500D02*Y24500D01*
Y26500D02*X126000Y27000D01*
X127000D01*
X127500Y26500D02*X127000Y27000D01*
X127500Y26500D02*Y25000D01*
X125500D02*X129500D01*
X127500Y25800D02*X129500Y27000D01*
Y28700D02*X127500Y30200D01*
X126000D02*X127500D01*
X125500Y29700D02*X126000Y30200D01*
X125500Y29700D02*Y28700D01*
X126000Y28200D02*X125500Y28700D01*
X126000Y28200D02*X127000D01*
X127500Y28700D01*
Y30200D02*Y28700D01*
X115500Y26500D02*Y24500D01*
Y26500D02*X116000Y27000D01*
X117000D01*
X117500Y26500D02*X117000Y27000D01*
X117500Y26500D02*Y25000D01*
X115500D02*X119500D01*
X117500Y25800D02*X119500Y27000D01*
X119000Y28200D02*X119500Y28700D01*
X118200Y28200D02*X119000D01*
X118200D02*X117500Y28900D01*
Y29500D02*Y28900D01*
Y29500D02*X118200Y30200D01*
X119000D01*
X119500Y29700D02*X119000Y30200D01*
X119500Y29700D02*Y28700D01*
X116800Y28200D02*X117500Y28900D01*
X116000Y28200D02*X116800D01*
X116000D02*X115500Y28700D01*
Y29700D02*Y28700D01*
Y29700D02*X116000Y30200D01*
X116800D01*
X117500Y29500D02*X116800Y30200D01*
X125500Y66500D02*Y64500D01*
Y66500D02*X126000Y67000D01*
X127000D01*
X127500Y66500D02*X127000Y67000D01*
X127500Y66500D02*Y65000D01*
X125500D02*X129500D01*
X127500Y65800D02*X129500Y67000D01*
X126300Y68200D02*X125500Y69000D01*
X129500D01*
Y69700D02*Y68200D01*
X126300Y70900D02*X125500Y71700D01*
X129500D01*
Y72400D02*Y70900D01*
X115500Y66500D02*Y64500D01*
Y66500D02*X116000Y67000D01*
X117000D01*
X117500Y66500D02*X117000Y67000D01*
X117500Y66500D02*Y65000D01*
X115500D02*X119500D01*
X117500Y65800D02*X119500Y67000D01*
X116300Y68200D02*X115500Y69000D01*
X119500D01*
Y69700D02*Y68200D01*
X119000Y70900D02*X119500Y71400D01*
X116000Y70900D02*X119000D01*
X116000D02*X115500Y71400D01*
Y72400D02*Y71400D01*
Y72400D02*X116000Y72900D01*
X119000D01*
X119500Y72400D02*X119000Y72900D01*
X119500Y72400D02*Y71400D01*
X118500Y70900D02*X116500Y72900D01*
X153500Y59500D02*X154800D01*
X155500Y58800D02*X154800Y59500D01*
X155500Y58800D02*Y56200D01*
X154800Y55500D01*
X153500D02*X154800D01*
X150800D02*X150300Y56000D01*
X150800Y55500D02*X151800D01*
X152300Y56000D02*X151800Y55500D01*
X152300Y59000D02*Y56000D01*
Y59000D02*X151800Y59500D01*
X150800Y57300D02*X150300Y57800D01*
X150800Y57300D02*X152300D01*
X150800Y59500D02*X151800D01*
X150800D02*X150300Y59000D01*
Y57800D01*
X174500Y15500D02*Y13500D01*
X174000Y13000D01*
X173000D02*X174000D01*
X172500Y13500D02*X173000Y13000D01*
X172500Y15000D02*Y13500D01*
X170500Y15000D02*X174500D01*
X172500Y14200D02*X170500Y13000D01*
X173700Y11800D02*X174500Y11000D01*
X170500D02*X174500D01*
X170500Y11800D02*Y10300D01*
X172000Y9100D02*X174500Y7100D01*
X172000Y9100D02*Y6600D01*
X170500Y7100D02*X174500D01*
X154500Y34500D02*X156500D01*
X157000Y34000D01*
Y33000D01*
X156500Y32500D02*X157000Y33000D01*
X155000Y32500D02*X156500D01*
X155000Y34500D02*Y30500D01*
X155800Y32500D02*X157000Y30500D01*
X158200Y33700D02*X159000Y34500D01*
Y30500D01*
X158200D02*X159700D01*
X160900Y34500D02*X162900D01*
X160900D02*Y32500D01*
X161400Y33000D01*
X162400D01*
X162900Y32500D01*
Y31000D01*
X162400Y30500D02*X162900Y31000D01*
X161400Y30500D02*X162400D01*
X160900Y31000D02*X161400Y30500D01*
X153500Y25500D02*X155500D01*
X153500D02*X153000Y26000D01*
Y27000D02*Y26000D01*
X153500Y27500D02*X153000Y27000D01*
X153500Y27500D02*X155000D01*
Y29500D02*Y25500D01*
X154200Y27500D02*X153000Y29500D01*
X151800Y26300D02*X151000Y25500D01*
Y29500D02*Y25500D01*
X150300Y29500D02*X151800D01*
X147600Y25500D02*X147100Y26000D01*
X147600Y25500D02*X148600D01*
X149100Y26000D02*X148600Y25500D01*
X149100Y29000D02*Y26000D01*
Y29000D02*X148600Y29500D01*
X147600Y27300D02*X147100Y27800D01*
X147600Y27300D02*X149100D01*
X147600Y29500D02*X148600D01*
X147600D02*X147100Y29000D01*
Y27800D01*
M02*
