G04 start of page 3 for group 1 idx 1 *
G04 Title: (unknown), bottom *
G04 Creator: pcb 20110918 *
G04 CreationDate: Sat 15 Jun 2013 04:56:11 AM GMT UTC *
G04 For: commonadmin *
G04 Format: Gerber/RS-274X *
G04 PCB-Dimensions: 600000 500000 *
G04 PCB-Coordinate-Origin: lower left *
%MOIN*%
%FSLAX25Y25*%
%LNBOTTOM*%
%ADD25C,0.0300*%
%ADD24C,0.0380*%
%ADD23C,0.0280*%
%ADD22C,0.0550*%
%ADD21C,0.0600*%
%ADD20C,0.0001*%
%ADD19C,0.0250*%
G54D19*X180000Y85000D02*X190000D01*
X195000Y80000D01*
Y45000D01*
X20000Y100000D02*X30000D01*
X35000Y95000D01*
Y60000D01*
X30000Y55000D01*
X195000Y45000D02*X190000Y40000D01*
G54D20*G36*
X177000Y88000D02*Y82000D01*
X183000D01*
Y88000D01*
X177000D01*
G37*
G54D21*X210000Y85000D03*
X180000Y75000D03*
X210000D03*
G54D20*G36*
X177000Y103000D02*Y97000D01*
X183000D01*
Y103000D01*
X177000D01*
G37*
G36*
X177250Y42750D02*Y37250D01*
X182750D01*
Y42750D01*
X177250D01*
G37*
G54D21*X190000Y100000D03*
G54D20*G36*
X187250Y42750D02*Y37250D01*
X192750D01*
Y42750D01*
X187250D01*
G37*
G36*
X227250Y87750D02*Y82250D01*
X232750D01*
Y87750D01*
X227250D01*
G37*
G36*
Y47750D02*Y42250D01*
X232750D01*
Y47750D01*
X227250D01*
G37*
G54D22*X230000Y75000D03*
Y115000D03*
G54D21*X20000Y70000D03*
X50000D03*
Y80000D03*
Y90000D03*
G54D20*G36*
X17000Y103000D02*Y97000D01*
X23000D01*
Y103000D01*
X17000D01*
G37*
G54D21*X20000Y90000D03*
Y80000D03*
G54D20*G36*
X17000Y123000D02*Y117000D01*
X23000D01*
Y123000D01*
X17000D01*
G37*
G54D21*X30000Y120000D03*
X50000Y100000D03*
G54D20*G36*
X17250Y42750D02*Y37250D01*
X22750D01*
Y42750D01*
X17250D01*
G37*
G36*
X7000Y58000D02*Y52000D01*
X13000D01*
Y58000D01*
X7000D01*
G37*
G54D22*X25000Y30000D03*
X10000Y10000D03*
G54D20*G36*
X7000Y28000D02*Y22000D01*
X13000D01*
Y28000D01*
X7000D01*
G37*
G54D21*X10000Y35000D03*
X20000Y55000D03*
G54D20*G36*
X27250Y57750D02*Y52250D01*
X32750D01*
Y57750D01*
X27250D01*
G37*
G36*
X37250Y12750D02*Y7250D01*
X42750D01*
Y12750D01*
X37250D01*
G37*
G36*
X47250D02*Y7250D01*
X52750D01*
Y12750D01*
X47250D01*
G37*
G54D22*X80000Y10000D03*
G54D20*G36*
X87250Y12750D02*Y7250D01*
X92750D01*
Y12750D01*
X87250D01*
G37*
G36*
X122250Y17750D02*Y12250D01*
X127750D01*
Y17750D01*
X122250D01*
G37*
G36*
X112250D02*Y12250D01*
X117750D01*
Y17750D01*
X112250D01*
G37*
G54D22*X50000Y40000D03*
X60000Y55000D03*
G54D20*G36*
X72000Y43000D02*Y37000D01*
X78000D01*
Y43000D01*
X72000D01*
G37*
G54D21*X65000Y40000D03*
G54D20*G36*
X52250Y32750D02*Y27250D01*
X57750D01*
Y32750D01*
X52250D01*
G37*
G36*
X112250Y57750D02*Y52250D01*
X117750D01*
Y57750D01*
X112250D01*
G37*
G36*
X72250Y97750D02*Y92250D01*
X77750D01*
Y97750D01*
X72250D01*
G37*
G36*
X122000Y98000D02*Y92000D01*
X128000D01*
Y98000D01*
X122000D01*
G37*
G54D21*X115000Y95000D03*
G54D22*X75000Y125000D03*
G54D20*G36*
X87000Y73000D02*Y67000D01*
X93000D01*
Y73000D01*
X87000D01*
G37*
G54D21*X90000Y60000D03*
G54D20*G36*
X72250Y57750D02*Y52250D01*
X77750D01*
Y57750D01*
X72250D01*
G37*
G54D22*X75000Y85000D03*
X90000Y40000D03*
X125000Y45000D03*
X115000D03*
G54D20*G36*
X122250Y57750D02*Y52250D01*
X127750D01*
Y57750D01*
X122250D01*
G37*
G54D22*X125000Y85000D03*
X115000D03*
G54D21*X180000Y65000D03*
Y55000D03*
X210000Y65000D03*
G54D20*G36*
X157000Y53000D02*Y47000D01*
X163000D01*
Y53000D01*
X157000D01*
G37*
G54D21*X150000Y50000D03*
X210000Y55000D03*
G54D22*X220000Y40000D03*
G54D20*G36*
X227000Y28000D02*Y22000D01*
X233000D01*
Y28000D01*
X227000D01*
G37*
G54D21*X220000Y25000D03*
G54D22*X180000Y10000D03*
G54D20*G36*
X137250Y37750D02*Y32250D01*
X142750D01*
Y37750D01*
X137250D01*
G37*
G54D22*X140000Y25000D03*
X170000Y35000D03*
G54D20*G36*
X167250Y27750D02*Y22250D01*
X172750D01*
Y27750D01*
X167250D01*
G37*
G54D23*G54D24*G54D25*G54D24*G54D25*G54D23*G54D24*G54D23*G54D25*G54D24*G54D25*G54D24*G54D25*G54D24*G54D25*G54D23*G54D25*G54D23*G54D25*M02*
