G04 start of page 12 for group -3984 idx -3984 *
G04 Title: (unknown), fab *
G04 Creator: pcb 20110918 *
G04 CreationDate: Sat 15 Jun 2013 04:56:11 AM GMT UTC *
G04 For: commonadmin *
G04 Format: Gerber/RS-274X *
G04 PCB-Dimensions: 600000 500000 *
G04 PCB-Coordinate-Origin: lower left *
%MOIN*%
%FSLAX25Y25*%
%LNFAB*%
%ADD40C,0.0100*%
%ADD39C,0.0075*%
%ADD38C,0.0060*%
%ADD37C,0.0080*%
G54D37*X18800Y121200D02*X21200Y118800D01*
X18800D02*X21200Y121200D01*
X28800D02*X31200Y118800D01*
X28800D02*X31200Y121200D01*
X88800Y71200D02*X91200Y68800D01*
X88800D02*X91200Y71200D01*
X88800Y61200D02*X91200Y58800D01*
X88800D02*X91200Y61200D01*
X8800Y26200D02*X11200Y23800D01*
X8800D02*X11200Y26200D01*
X8800Y36200D02*X11200Y33800D01*
X8800D02*X11200Y36200D01*
X178800Y101200D02*X181200Y98800D01*
X178800D02*X181200Y101200D01*
X188800D02*X191200Y98800D01*
X188800D02*X191200Y101200D01*
X123800Y96200D02*X126200Y93800D01*
X123800D02*X126200Y96200D01*
X113800D02*X116200Y93800D01*
X113800D02*X116200Y96200D01*
X13800Y527450D02*X16200Y525050D01*
X13800D02*X16200Y527450D01*
G54D38*X135000Y528500D02*X136500Y525500D01*
X138000Y528500D01*
X136500Y525500D02*Y522500D01*
X139800Y525800D02*X142050D01*
X139800Y522500D02*X142800D01*
X139800Y528500D02*Y522500D01*
Y528500D02*X142800D01*
X147600D02*X148350Y527750D01*
X145350Y528500D02*X147600D01*
X144600Y527750D02*X145350Y528500D01*
X144600Y527750D02*Y526250D01*
X145350Y525500D01*
X147600D01*
X148350Y524750D01*
Y523250D01*
X147600Y522500D02*X148350Y523250D01*
X145350Y522500D02*X147600D01*
X144600Y523250D02*X145350Y522500D01*
X98000Y527300D02*X99200Y528500D01*
Y522500D01*
X98000D02*X100250D01*
X102050Y523250D02*X102800Y522500D01*
X102050Y527750D02*Y523250D01*
Y527750D02*X102800Y528500D01*
X104300D01*
X105050Y527750D01*
Y523250D01*
X104300Y522500D02*X105050Y523250D01*
X102800Y522500D02*X104300D01*
X102050Y524000D02*X105050Y527000D01*
X45000Y523250D02*X45750Y522500D01*
X45000Y527750D02*Y523250D01*
Y527750D02*X45750Y528500D01*
X47250D01*
X48000Y527750D01*
Y523250D01*
X47250Y522500D02*X48000Y523250D01*
X45750Y522500D02*X47250D01*
X45000Y524000D02*X48000Y527000D01*
X49800Y522500D02*X50550D01*
X52350Y523250D02*X53100Y522500D01*
X52350Y527750D02*Y523250D01*
Y527750D02*X53100Y528500D01*
X54600D01*
X55350Y527750D01*
Y523250D01*
X54600Y522500D02*X55350Y523250D01*
X53100Y522500D02*X54600D01*
X52350Y524000D02*X55350Y527000D01*
X57150Y527750D02*X57900Y528500D01*
X59400D01*
X60150Y527750D01*
X59400Y522500D02*X60150Y523250D01*
X57900Y522500D02*X59400D01*
X57150Y523250D02*X57900Y522500D01*
Y525800D02*X59400D01*
X60150Y527750D02*Y526550D01*
Y525050D02*Y523250D01*
Y525050D02*X59400Y525800D01*
X60150Y526550D02*X59400Y525800D01*
X61950Y523250D02*X62700Y522500D01*
X61950Y524450D02*Y523250D01*
Y524450D02*X63000Y525500D01*
X63900D01*
X64950Y524450D01*
Y523250D01*
X64200Y522500D02*X64950Y523250D01*
X62700Y522500D02*X64200D01*
X61950Y526550D02*X63000Y525500D01*
X61950Y527750D02*Y526550D01*
Y527750D02*X62700Y528500D01*
X64200D01*
X64950Y527750D01*
Y526550D01*
X63900Y525500D02*X64950Y526550D01*
X50000Y11600D02*Y8400D01*
X48400Y10000D02*X51600D01*
X80000Y11600D02*Y8400D01*
X78400Y10000D02*X81600D01*
X20000Y41600D02*Y38400D01*
X18400Y40000D02*X21600D01*
X50000Y41600D02*Y38400D01*
X48400Y40000D02*X51600D01*
X10000Y56600D02*Y53400D01*
X8400Y55000D02*X11600D01*
X20000Y56600D02*Y53400D01*
X18400Y55000D02*X21600D01*
X30000Y56600D02*Y53400D01*
X28400Y55000D02*X31600D01*
X60000Y56600D02*Y53400D01*
X58400Y55000D02*X61600D01*
X75000Y41600D02*Y38400D01*
X73400Y40000D02*X76600D01*
X65000Y41600D02*Y38400D01*
X63400Y40000D02*X66600D01*
X75000Y96600D02*Y93400D01*
X73400Y95000D02*X76600D01*
X75000Y126600D02*Y123400D01*
X73400Y125000D02*X76600D01*
X75000Y56600D02*Y53400D01*
X73400Y55000D02*X76600D01*
X75000Y86600D02*Y83400D01*
X73400Y85000D02*X76600D01*
X55000Y31600D02*Y28400D01*
X53400Y30000D02*X56600D01*
X25000Y31600D02*Y28400D01*
X23400Y30000D02*X26600D01*
X40000Y11600D02*Y8400D01*
X38400Y10000D02*X41600D01*
X10000Y11600D02*Y8400D01*
X8400Y10000D02*X11600D01*
X90000Y11600D02*Y8400D01*
X88400Y10000D02*X91600D01*
X90000Y41600D02*Y38400D01*
X88400Y40000D02*X91600D01*
X125000Y16600D02*Y13400D01*
X123400Y15000D02*X126600D01*
X125000Y46600D02*Y43400D01*
X123400Y45000D02*X126600D01*
X115000Y16600D02*Y13400D01*
X113400Y15000D02*X116600D01*
X115000Y46600D02*Y43400D01*
X113400Y45000D02*X116600D01*
X125000Y56600D02*Y53400D01*
X123400Y55000D02*X126600D01*
X125000Y86600D02*Y83400D01*
X123400Y85000D02*X126600D01*
X115000Y56600D02*Y53400D01*
X113400Y55000D02*X116600D01*
X115000Y86600D02*Y83400D01*
X113400Y85000D02*X116600D01*
X160000Y51600D02*Y48400D01*
X158400Y50000D02*X161600D01*
X150000Y51600D02*Y48400D01*
X148400Y50000D02*X151600D01*
X190000Y41600D02*Y38400D01*
X188400Y40000D02*X191600D01*
X220000Y41600D02*Y38400D01*
X218400Y40000D02*X221600D01*
X230000Y26600D02*Y23400D01*
X228400Y25000D02*X231600D01*
X220000Y26600D02*Y23400D01*
X218400Y25000D02*X221600D01*
X230000Y86600D02*Y83400D01*
X228400Y85000D02*X231600D01*
X230000Y116600D02*Y113400D01*
X228400Y115000D02*X231600D01*
X230000Y46600D02*Y43400D01*
X228400Y45000D02*X231600D01*
X230000Y76600D02*Y73400D01*
X228400Y75000D02*X231600D01*
X180000Y41600D02*Y38400D01*
X178400Y40000D02*X181600D01*
X180000Y11600D02*Y8400D01*
X178400Y10000D02*X181600D01*
X140000Y36600D02*Y33400D01*
X138400Y35000D02*X141600D01*
X170000Y36600D02*Y33400D01*
X168400Y35000D02*X171600D01*
X170000Y26600D02*Y23400D01*
X168400Y25000D02*X171600D01*
X140000Y26600D02*Y23400D01*
X138400Y25000D02*X141600D01*
X15000Y542850D02*Y539650D01*
X13400Y541250D02*X16600D01*
X135000Y543500D02*X136500Y540500D01*
X138000Y543500D01*
X136500Y540500D02*Y537500D01*
X139800Y540800D02*X142050D01*
X139800Y537500D02*X142800D01*
X139800Y543500D02*Y537500D01*
Y543500D02*X142800D01*
X147600D02*X148350Y542750D01*
X145350Y543500D02*X147600D01*
X144600Y542750D02*X145350Y543500D01*
X144600Y542750D02*Y541250D01*
X145350Y540500D01*
X147600D01*
X148350Y539750D01*
Y538250D01*
X147600Y537500D02*X148350Y538250D01*
X145350Y537500D02*X147600D01*
X144600Y538250D02*X145350Y537500D01*
X98000Y539750D02*X101000Y543500D01*
X98000Y539750D02*X101750D01*
X101000Y543500D02*Y537500D01*
X103550Y539750D02*X106550Y543500D01*
X103550Y539750D02*X107300D01*
X106550Y543500D02*Y537500D01*
X45000Y538250D02*X45750Y537500D01*
X45000Y542750D02*Y538250D01*
Y542750D02*X45750Y543500D01*
X47250D01*
X48000Y542750D01*
Y538250D01*
X47250Y537500D02*X48000Y538250D01*
X45750Y537500D02*X47250D01*
X45000Y539000D02*X48000Y542000D01*
X49800Y537500D02*X50550D01*
X52350Y538250D02*X53100Y537500D01*
X52350Y542750D02*Y538250D01*
Y542750D02*X53100Y543500D01*
X54600D01*
X55350Y542750D01*
Y538250D01*
X54600Y537500D02*X55350Y538250D01*
X53100Y537500D02*X54600D01*
X52350Y539000D02*X55350Y542000D01*
X57150Y542750D02*X57900Y543500D01*
X59400D01*
X60150Y542750D01*
X59400Y537500D02*X60150Y538250D01*
X57900Y537500D02*X59400D01*
X57150Y538250D02*X57900Y537500D01*
Y540800D02*X59400D01*
X60150Y542750D02*Y541550D01*
Y540050D02*Y538250D01*
Y540050D02*X59400Y540800D01*
X60150Y541550D02*X59400Y540800D01*
X61950Y538250D02*X62700Y537500D01*
X61950Y542750D02*Y538250D01*
Y542750D02*X62700Y543500D01*
X64200D01*
X64950Y542750D01*
Y538250D01*
X64200Y537500D02*X64950Y538250D01*
X62700Y537500D02*X64200D01*
X61950Y539000D02*X64950Y542000D01*
X20000Y100000D02*Y98400D01*
Y100000D02*X21387Y100800D01*
X20000Y100000D02*X18613Y100800D01*
X20000Y90000D02*Y88400D01*
Y90000D02*X21387Y90800D01*
X20000Y90000D02*X18613Y90800D01*
X20000Y80000D02*Y78400D01*
Y80000D02*X21387Y80800D01*
X20000Y80000D02*X18613Y80800D01*
X20000Y70000D02*Y68400D01*
Y70000D02*X21387Y70800D01*
X20000Y70000D02*X18613Y70800D01*
X50000Y70000D02*Y68400D01*
Y70000D02*X51387Y70800D01*
X50000Y70000D02*X48613Y70800D01*
X50000Y80000D02*Y78400D01*
Y80000D02*X51387Y80800D01*
X50000Y80000D02*X48613Y80800D01*
X50000Y90000D02*Y88400D01*
Y90000D02*X51387Y90800D01*
X50000Y90000D02*X48613Y90800D01*
X50000Y100000D02*Y98400D01*
Y100000D02*X51387Y100800D01*
X50000Y100000D02*X48613Y100800D01*
X180000Y85000D02*Y83400D01*
Y85000D02*X181387Y85800D01*
X180000Y85000D02*X178613Y85800D01*
X180000Y75000D02*Y73400D01*
Y75000D02*X181387Y75800D01*
X180000Y75000D02*X178613Y75800D01*
X180000Y65000D02*Y63400D01*
Y65000D02*X181387Y65800D01*
X180000Y65000D02*X178613Y65800D01*
X180000Y55000D02*Y53400D01*
Y55000D02*X181387Y55800D01*
X180000Y55000D02*X178613Y55800D01*
X210000Y55000D02*Y53400D01*
Y55000D02*X211387Y55800D01*
X210000Y55000D02*X208613Y55800D01*
X210000Y65000D02*Y63400D01*
Y65000D02*X211387Y65800D01*
X210000Y65000D02*X208613Y65800D01*
X210000Y75000D02*Y73400D01*
Y75000D02*X211387Y75800D01*
X210000Y75000D02*X208613Y75800D01*
X210000Y85000D02*Y83400D01*
Y85000D02*X211387Y85800D01*
X210000Y85000D02*X208613Y85800D01*
X15000Y556250D02*Y554650D01*
Y556250D02*X16387Y557050D01*
X15000Y556250D02*X13613Y557050D01*
X135000Y558500D02*X136500Y555500D01*
X138000Y558500D01*
X136500Y555500D02*Y552500D01*
X139800Y555800D02*X142050D01*
X139800Y552500D02*X142800D01*
X139800Y558500D02*Y552500D01*
Y558500D02*X142800D01*
X147600D02*X148350Y557750D01*
X145350Y558500D02*X147600D01*
X144600Y557750D02*X145350Y558500D01*
X144600Y557750D02*Y556250D01*
X145350Y555500D01*
X147600D01*
X148350Y554750D01*
Y553250D01*
X147600Y552500D02*X148350Y553250D01*
X145350Y552500D02*X147600D01*
X144600Y553250D02*X145350Y552500D01*
X98000Y557300D02*X99200Y558500D01*
Y552500D01*
X98000D02*X100250D01*
X104300Y558500D02*X105050Y557750D01*
X102800Y558500D02*X104300D01*
X102050Y557750D02*X102800Y558500D01*
X102050Y557750D02*Y553250D01*
X102800Y552500D01*
X104300Y555800D02*X105050Y555050D01*
X102050Y555800D02*X104300D01*
X102800Y552500D02*X104300D01*
X105050Y553250D01*
Y555050D02*Y553250D01*
X45000D02*X45750Y552500D01*
X45000Y557750D02*Y553250D01*
Y557750D02*X45750Y558500D01*
X47250D01*
X48000Y557750D01*
Y553250D01*
X47250Y552500D02*X48000Y553250D01*
X45750Y552500D02*X47250D01*
X45000Y554000D02*X48000Y557000D01*
X49800Y552500D02*X50550D01*
X52350Y553250D02*X53100Y552500D01*
X52350Y557750D02*Y553250D01*
Y557750D02*X53100Y558500D01*
X54600D01*
X55350Y557750D01*
Y553250D01*
X54600Y552500D02*X55350Y553250D01*
X53100Y552500D02*X54600D01*
X52350Y554000D02*X55350Y557000D01*
X57150Y557750D02*X57900Y558500D01*
X60150D01*
X60900Y557750D01*
Y556250D01*
X57150Y552500D02*X60900Y556250D01*
X57150Y552500D02*X60900D01*
X62700Y553250D02*X63450Y552500D01*
X62700Y554450D02*Y553250D01*
Y554450D02*X63750Y555500D01*
X64650D01*
X65700Y554450D01*
Y553250D01*
X64950Y552500D02*X65700Y553250D01*
X63450Y552500D02*X64950D01*
X62700Y556550D02*X63750Y555500D01*
X62700Y557750D02*Y556550D01*
Y557750D02*X63450Y558500D01*
X64950D01*
X65700Y557750D01*
Y556550D01*
X64650Y555500D02*X65700Y556550D01*
X3000Y573500D02*X3750Y572750D01*
X750Y573500D02*X3000D01*
X0Y572750D02*X750Y573500D01*
X0Y572750D02*Y571250D01*
X750Y570500D01*
X3000D01*
X3750Y569750D01*
Y568250D01*
X3000Y567500D02*X3750Y568250D01*
X750Y567500D02*X3000D01*
X0Y568250D02*X750Y567500D01*
X5550Y570500D02*Y568250D01*
X6300Y567500D01*
X8550Y570500D02*Y566000D01*
X7800Y565250D02*X8550Y566000D01*
X6300Y565250D02*X7800D01*
X5550Y566000D02*X6300Y565250D01*
Y567500D02*X7800D01*
X8550Y568250D01*
X11100Y569750D02*Y567500D01*
Y569750D02*X11850Y570500D01*
X12600D01*
X13350Y569750D01*
Y567500D01*
Y569750D02*X14100Y570500D01*
X14850D01*
X15600Y569750D01*
Y567500D01*
X10350Y570500D02*X11100Y569750D01*
X17400Y573500D02*Y567500D01*
Y568250D02*X18150Y567500D01*
X19650D01*
X20400Y568250D01*
Y569750D02*Y568250D01*
X19650Y570500D02*X20400Y569750D01*
X18150Y570500D02*X19650D01*
X17400Y569750D02*X18150Y570500D01*
X22200Y569750D02*Y568250D01*
Y569750D02*X22950Y570500D01*
X24450D01*
X25200Y569750D01*
Y568250D01*
X24450Y567500D02*X25200Y568250D01*
X22950Y567500D02*X24450D01*
X22200Y568250D02*X22950Y567500D01*
X27000Y573500D02*Y568250D01*
X27750Y567500D01*
X0Y564250D02*X29250D01*
X41750Y573500D02*Y567500D01*
X43700Y573500D02*X44750Y572450D01*
Y568550D01*
X43700Y567500D02*X44750Y568550D01*
X41000Y567500D02*X43700D01*
X41000Y573500D02*X43700D01*
G54D39*X46550Y572000D02*Y571850D01*
G54D38*Y569750D02*Y567500D01*
X50300Y570500D02*X51050Y569750D01*
X48800Y570500D02*X50300D01*
X48050Y569750D02*X48800Y570500D01*
X48050Y569750D02*Y568250D01*
X48800Y567500D01*
X51050Y570500D02*Y568250D01*
X51800Y567500D01*
X48800D02*X50300D01*
X51050Y568250D01*
X54350Y569750D02*Y567500D01*
Y569750D02*X55100Y570500D01*
X55850D01*
X56600Y569750D01*
Y567500D01*
Y569750D02*X57350Y570500D01*
X58100D01*
X58850Y569750D01*
Y567500D01*
X53600Y570500D02*X54350Y569750D01*
X60650Y567500D02*X61400D01*
X65900Y568250D02*X66650Y567500D01*
X65900Y572750D02*X66650Y573500D01*
X65900Y572750D02*Y568250D01*
X68450Y573500D02*X69950D01*
X69200D02*Y567500D01*
X68450D02*X69950D01*
X72500Y569750D02*Y567500D01*
Y569750D02*X73250Y570500D01*
X74000D01*
X74750Y569750D01*
Y567500D01*
X71750Y570500D02*X72500Y569750D01*
X77300Y570500D02*X79550D01*
X76550Y569750D02*X77300Y570500D01*
X76550Y569750D02*Y568250D01*
X77300Y567500D01*
X79550D01*
X81350Y573500D02*Y567500D01*
Y569750D02*X82100Y570500D01*
X83600D01*
X84350Y569750D01*
Y567500D01*
X86150Y573500D02*X86900Y572750D01*
Y568250D01*
X86150Y567500D02*X86900Y568250D01*
X41000Y564250D02*X88700D01*
X96050Y567500D02*X98000D01*
X95000Y568550D02*X96050Y567500D01*
X95000Y572450D02*Y568550D01*
Y572450D02*X96050Y573500D01*
X98000D01*
X99800Y569750D02*Y568250D01*
Y569750D02*X100550Y570500D01*
X102050D01*
X102800Y569750D01*
Y568250D01*
X102050Y567500D02*X102800Y568250D01*
X100550Y567500D02*X102050D01*
X99800Y568250D02*X100550Y567500D01*
X104600Y570500D02*Y568250D01*
X105350Y567500D01*
X106850D01*
X107600Y568250D01*
Y570500D02*Y568250D01*
X110150Y569750D02*Y567500D01*
Y569750D02*X110900Y570500D01*
X111650D01*
X112400Y569750D01*
Y567500D01*
X109400Y570500D02*X110150Y569750D01*
X114950Y573500D02*Y568250D01*
X115700Y567500D01*
X114200Y571250D02*X115700D01*
X95000Y564250D02*X117200D01*
X130750Y573500D02*Y567500D01*
X130000Y573500D02*X133000D01*
X133750Y572750D01*
Y571250D01*
X133000Y570500D02*X133750Y571250D01*
X130750Y570500D02*X133000D01*
X135550Y573500D02*Y568250D01*
X136300Y567500D01*
X140050Y570500D02*X140800Y569750D01*
X138550Y570500D02*X140050D01*
X137800Y569750D02*X138550Y570500D01*
X137800Y569750D02*Y568250D01*
X138550Y567500D01*
X140800Y570500D02*Y568250D01*
X141550Y567500D01*
X138550D02*X140050D01*
X140800Y568250D01*
X144100Y573500D02*Y568250D01*
X144850Y567500D01*
X143350Y571250D02*X144850D01*
X147100Y567500D02*X149350D01*
X146350Y568250D02*X147100Y567500D01*
X146350Y569750D02*Y568250D01*
Y569750D02*X147100Y570500D01*
X148600D01*
X149350Y569750D01*
X146350Y569000D02*X149350D01*
Y569750D02*Y569000D01*
X154150Y573500D02*Y567500D01*
X153400D02*X154150Y568250D01*
X151900Y567500D02*X153400D01*
X151150Y568250D02*X151900Y567500D01*
X151150Y569750D02*Y568250D01*
Y569750D02*X151900Y570500D01*
X153400D01*
X154150Y569750D01*
X157450Y570500D02*Y569750D01*
Y568250D02*Y567500D01*
X155950Y572750D02*Y572000D01*
Y572750D02*X156700Y573500D01*
X158200D01*
X158950Y572750D01*
Y572000D01*
X157450Y570500D02*X158950Y572000D01*
X130000Y564250D02*X160750D01*
X0Y588500D02*X3000D01*
X1500D02*Y582500D01*
X4800Y588500D02*Y582500D01*
Y584750D02*X5550Y585500D01*
X7050D01*
X7800Y584750D01*
Y582500D01*
X10350D02*X12600D01*
X9600Y583250D02*X10350Y582500D01*
X9600Y584750D02*Y583250D01*
Y584750D02*X10350Y585500D01*
X11850D01*
X12600Y584750D01*
X9600Y584000D02*X12600D01*
Y584750D02*Y584000D01*
X15150Y584750D02*Y582500D01*
Y584750D02*X15900Y585500D01*
X17400D01*
X14400D02*X15150Y584750D01*
X19950Y582500D02*X22200D01*
X19200Y583250D02*X19950Y582500D01*
X19200Y584750D02*Y583250D01*
Y584750D02*X19950Y585500D01*
X21450D01*
X22200Y584750D01*
X19200Y584000D02*X22200D01*
Y584750D02*Y584000D01*
X28950Y585500D02*X29700Y584750D01*
X27450Y585500D02*X28950D01*
X26700Y584750D02*X27450Y585500D01*
X26700Y584750D02*Y583250D01*
X27450Y582500D01*
X29700Y585500D02*Y583250D01*
X30450Y582500D01*
X27450D02*X28950D01*
X29700Y583250D01*
X33000Y584750D02*Y582500D01*
Y584750D02*X33750Y585500D01*
X35250D01*
X32250D02*X33000Y584750D01*
X37800Y582500D02*X40050D01*
X37050Y583250D02*X37800Y582500D01*
X37050Y584750D02*Y583250D01*
Y584750D02*X37800Y585500D01*
X39300D01*
X40050Y584750D01*
X37050Y584000D02*X40050D01*
Y584750D02*Y584000D01*
X44550Y587750D02*X45300Y588500D01*
X46800D01*
X47550Y587750D01*
X46800Y582500D02*X47550Y583250D01*
X45300Y582500D02*X46800D01*
X44550Y583250D02*X45300Y582500D01*
Y585800D02*X46800D01*
X47550Y587750D02*Y586550D01*
Y585050D02*Y583250D01*
Y585050D02*X46800Y585800D01*
X47550Y586550D02*X46800Y585800D01*
X55050Y588500D02*Y582500D01*
X54300D02*X55050Y583250D01*
X52800Y582500D02*X54300D01*
X52050Y583250D02*X52800Y582500D01*
X52050Y584750D02*Y583250D01*
Y584750D02*X52800Y585500D01*
X54300D01*
X55050Y584750D01*
G54D39*X56850Y587000D02*Y586850D01*
G54D38*Y584750D02*Y582500D01*
X59100Y587750D02*Y582500D01*
Y587750D02*X59850Y588500D01*
X60600D01*
X58350Y585500D02*X59850D01*
X62850Y587750D02*Y582500D01*
Y587750D02*X63600Y588500D01*
X64350D01*
X62100Y585500D02*X63600D01*
X66600Y582500D02*X68850D01*
X65850Y583250D02*X66600Y582500D01*
X65850Y584750D02*Y583250D01*
Y584750D02*X66600Y585500D01*
X68100D01*
X68850Y584750D01*
X65850Y584000D02*X68850D01*
Y584750D02*Y584000D01*
X71400Y584750D02*Y582500D01*
Y584750D02*X72150Y585500D01*
X73650D01*
X70650D02*X71400Y584750D01*
X76200Y582500D02*X78450D01*
X75450Y583250D02*X76200Y582500D01*
X75450Y584750D02*Y583250D01*
Y584750D02*X76200Y585500D01*
X77700D01*
X78450Y584750D01*
X75450Y584000D02*X78450D01*
Y584750D02*Y584000D01*
X81000Y584750D02*Y582500D01*
Y584750D02*X81750Y585500D01*
X82500D01*
X83250Y584750D01*
Y582500D01*
X80250Y585500D02*X81000Y584750D01*
X85800Y588500D02*Y583250D01*
X86550Y582500D01*
X85050Y586250D02*X86550D01*
X93750Y588500D02*Y582500D01*
X93000D02*X93750Y583250D01*
X91500Y582500D02*X93000D01*
X90750Y583250D02*X91500Y582500D01*
X90750Y584750D02*Y583250D01*
Y584750D02*X91500Y585500D01*
X93000D01*
X93750Y584750D01*
X96300D02*Y582500D01*
Y584750D02*X97050Y585500D01*
X98550D01*
X95550D02*X96300Y584750D01*
G54D39*X100350Y587000D02*Y586850D01*
G54D38*Y584750D02*Y582500D01*
X101850Y588500D02*Y583250D01*
X102600Y582500D01*
X104100Y588500D02*Y583250D01*
X104850Y582500D01*
X109800D02*X112050D01*
X112800Y583250D01*
X112050Y584000D02*X112800Y583250D01*
X109800Y584000D02*X112050D01*
X109050Y584750D02*X109800Y584000D01*
X109050Y584750D02*X109800Y585500D01*
X112050D01*
X112800Y584750D01*
X109050Y583250D02*X109800Y582500D01*
G54D39*X114600Y587000D02*Y586850D01*
G54D38*Y584750D02*Y582500D01*
X116100Y585500D02*X119100D01*
X116100Y582500D02*X119100Y585500D01*
X116100Y582500D02*X119100D01*
X121650D02*X123900D01*
X120900Y583250D02*X121650Y582500D01*
X120900Y584750D02*Y583250D01*
Y584750D02*X121650Y585500D01*
X123150D01*
X123900Y584750D01*
X120900Y584000D02*X123900D01*
Y584750D02*Y584000D01*
X126450Y582500D02*X128700D01*
X129450Y583250D01*
X128700Y584000D02*X129450Y583250D01*
X126450Y584000D02*X128700D01*
X125700Y584750D02*X126450Y584000D01*
X125700Y584750D02*X126450Y585500D01*
X128700D01*
X129450Y584750D01*
X125700Y583250D02*X126450Y582500D01*
X133950Y585500D02*Y583250D01*
X134700Y582500D01*
X136200D01*
X136950Y583250D01*
Y585500D02*Y583250D01*
X139500Y582500D02*X141750D01*
X142500Y583250D01*
X141750Y584000D02*X142500Y583250D01*
X139500Y584000D02*X141750D01*
X138750Y584750D02*X139500Y584000D01*
X138750Y584750D02*X139500Y585500D01*
X141750D01*
X142500Y584750D01*
X138750Y583250D02*X139500Y582500D01*
X145050D02*X147300D01*
X144300Y583250D02*X145050Y582500D01*
X144300Y584750D02*Y583250D01*
Y584750D02*X145050Y585500D01*
X146550D01*
X147300Y584750D01*
X144300Y584000D02*X147300D01*
Y584750D02*Y584000D01*
X152100Y588500D02*Y582500D01*
X151350D02*X152100Y583250D01*
X149850Y582500D02*X151350D01*
X149100Y583250D02*X149850Y582500D01*
X149100Y584750D02*Y583250D01*
Y584750D02*X149850Y585500D01*
X151350D01*
X152100Y584750D01*
G54D39*X156600Y587000D02*Y586850D01*
G54D38*Y584750D02*Y582500D01*
X158850Y584750D02*Y582500D01*
Y584750D02*X159600Y585500D01*
X160350D01*
X161100Y584750D01*
Y582500D01*
X158100Y585500D02*X158850Y584750D01*
X166350Y588500D02*Y583250D01*
X167100Y582500D01*
X165600Y586250D02*X167100D01*
X168600Y588500D02*Y582500D01*
Y584750D02*X169350Y585500D01*
X170850D01*
X171600Y584750D01*
Y582500D01*
G54D39*X173400Y587000D02*Y586850D01*
G54D38*Y584750D02*Y582500D01*
X175650D02*X177900D01*
X178650Y583250D01*
X177900Y584000D02*X178650Y583250D01*
X175650Y584000D02*X177900D01*
X174900Y584750D02*X175650Y584000D01*
X174900Y584750D02*X175650Y585500D01*
X177900D01*
X178650Y584750D01*
X174900Y583250D02*X175650Y582500D01*
X183150Y588500D02*Y583250D01*
X183900Y582500D01*
X187650Y585500D02*X188400Y584750D01*
X186150Y585500D02*X187650D01*
X185400Y584750D02*X186150Y585500D01*
X185400Y584750D02*Y583250D01*
X186150Y582500D01*
X188400Y585500D02*Y583250D01*
X189150Y582500D01*
X186150D02*X187650D01*
X188400Y583250D01*
X190950Y585500D02*Y583250D01*
X191700Y582500D01*
X193950Y585500D02*Y581000D01*
X193200Y580250D02*X193950Y581000D01*
X191700Y580250D02*X193200D01*
X190950Y581000D02*X191700Y580250D01*
Y582500D02*X193200D01*
X193950Y583250D01*
X195750Y584750D02*Y583250D01*
Y584750D02*X196500Y585500D01*
X198000D01*
X198750Y584750D01*
Y583250D01*
X198000Y582500D02*X198750Y583250D01*
X196500Y582500D02*X198000D01*
X195750Y583250D02*X196500Y582500D01*
X200550Y585500D02*Y583250D01*
X201300Y582500D01*
X202800D01*
X203550Y583250D01*
Y585500D02*Y583250D01*
X206100Y588500D02*Y583250D01*
X206850Y582500D01*
X205350Y586250D02*X206850D01*
X208350Y581000D02*X209850Y582500D01*
X215100D02*X218100Y588500D01*
X214350D02*X218100D01*
X219900Y583250D02*X220650Y582500D01*
X219900Y587750D02*Y583250D01*
Y587750D02*X220650Y588500D01*
X222150D01*
X222900Y587750D01*
Y583250D01*
X222150Y582500D02*X222900Y583250D01*
X220650Y582500D02*X222150D01*
X219900Y584000D02*X222900Y587000D01*
X227400Y588500D02*Y582500D01*
Y584750D02*X228150Y585500D01*
X229650D01*
X230400Y584750D01*
Y582500D01*
X232200Y584750D02*Y583250D01*
Y584750D02*X232950Y585500D01*
X234450D01*
X235200Y584750D01*
Y583250D01*
X234450Y582500D02*X235200Y583250D01*
X232950Y582500D02*X234450D01*
X232200Y583250D02*X232950Y582500D01*
X237000Y588500D02*Y583250D01*
X237750Y582500D01*
X240000D02*X242250D01*
X239250Y583250D02*X240000Y582500D01*
X239250Y584750D02*Y583250D01*
Y584750D02*X240000Y585500D01*
X241500D01*
X242250Y584750D01*
X239250Y584000D02*X242250D01*
Y584750D02*Y584000D01*
X244800Y582500D02*X247050D01*
X247800Y583250D01*
X247050Y584000D02*X247800Y583250D01*
X244800Y584000D02*X247050D01*
X244050Y584750D02*X244800Y584000D01*
X244050Y584750D02*X244800Y585500D01*
X247050D01*
X247800Y584750D01*
X244050Y583250D02*X244800Y582500D01*
X253050Y588500D02*Y583250D01*
X253800Y582500D01*
X252300Y586250D02*X253800D01*
X255300Y584750D02*Y583250D01*
Y584750D02*X256050Y585500D01*
X257550D01*
X258300Y584750D01*
Y583250D01*
X257550Y582500D02*X258300Y583250D01*
X256050Y582500D02*X257550D01*
X255300Y583250D02*X256050Y582500D01*
X260850Y588500D02*Y583250D01*
X261600Y582500D01*
X260100Y586250D02*X261600D01*
X265350Y585500D02*X266100Y584750D01*
X263850Y585500D02*X265350D01*
X263100Y584750D02*X263850Y585500D01*
X263100Y584750D02*Y583250D01*
X263850Y582500D01*
X266100Y585500D02*Y583250D01*
X266850Y582500D01*
X263850D02*X265350D01*
X266100Y583250D01*
X268650Y588500D02*Y583250D01*
X269400Y582500D01*
G54D40*X0Y0D02*X240000D01*
Y140000D01*
X0D01*
Y0D01*
G54D38*X213675Y-9500D02*X216675D01*
X217425Y-8750D01*
Y-6950D02*Y-8750D01*
X216675Y-6200D02*X217425Y-6950D01*
X214425Y-6200D02*X216675D01*
X214425Y-3500D02*Y-9500D01*
X213675Y-3500D02*X216675D01*
X217425Y-4250D01*
Y-5450D01*
X216675Y-6200D02*X217425Y-5450D01*
X219225Y-7250D02*Y-8750D01*
Y-7250D02*X219975Y-6500D01*
X221475D01*
X222225Y-7250D01*
Y-8750D01*
X221475Y-9500D02*X222225Y-8750D01*
X219975Y-9500D02*X221475D01*
X219225Y-8750D02*X219975Y-9500D01*
X226275Y-6500D02*X227025Y-7250D01*
X224775Y-6500D02*X226275D01*
X224025Y-7250D02*X224775Y-6500D01*
X224025Y-7250D02*Y-8750D01*
X224775Y-9500D01*
X227025Y-6500D02*Y-8750D01*
X227775Y-9500D01*
X224775D02*X226275D01*
X227025Y-8750D01*
X230325Y-7250D02*Y-9500D01*
Y-7250D02*X231075Y-6500D01*
X232575D01*
X229575D02*X230325Y-7250D01*
X237375Y-3500D02*Y-9500D01*
X236625D02*X237375Y-8750D01*
X235125Y-9500D02*X236625D01*
X234375Y-8750D02*X235125Y-9500D01*
X234375Y-7250D02*Y-8750D01*
Y-7250D02*X235125Y-6500D01*
X236625D01*
X237375Y-7250D01*
X241875D02*Y-8750D01*
Y-7250D02*X242625Y-6500D01*
X244125D01*
X244875Y-7250D01*
Y-8750D01*
X244125Y-9500D02*X244875Y-8750D01*
X242625Y-9500D02*X244125D01*
X241875Y-8750D02*X242625Y-9500D01*
X246675Y-6500D02*Y-8750D01*
X247425Y-9500D01*
X248925D01*
X249675Y-8750D01*
Y-6500D02*Y-8750D01*
X252225Y-3500D02*Y-8750D01*
X252975Y-9500D01*
X251475Y-5750D02*X252975D01*
X254475Y-3500D02*Y-8750D01*
X255225Y-9500D01*
G54D39*X256725Y-5000D02*Y-5150D01*
G54D38*Y-7250D02*Y-9500D01*
X258975Y-7250D02*Y-9500D01*
Y-7250D02*X259725Y-6500D01*
X260475D01*
X261225Y-7250D01*
Y-9500D01*
X258225Y-6500D02*X258975Y-7250D01*
X263775Y-9500D02*X266025D01*
X263025Y-8750D02*X263775Y-9500D01*
X263025Y-7250D02*Y-8750D01*
Y-7250D02*X263775Y-6500D01*
X265275D01*
X266025Y-7250D01*
X263025Y-8000D02*X266025D01*
Y-7250D02*Y-8000D01*
G54D39*X270525Y-5000D02*Y-5150D01*
G54D38*Y-7250D02*Y-9500D01*
X272775D02*X275025D01*
X275775Y-8750D01*
X275025Y-8000D02*X275775Y-8750D01*
X272775Y-8000D02*X275025D01*
X272025Y-7250D02*X272775Y-8000D01*
X272025Y-7250D02*X272775Y-6500D01*
X275025D01*
X275775Y-7250D01*
X272025Y-8750D02*X272775Y-9500D01*
X281025Y-3500D02*Y-8750D01*
X281775Y-9500D01*
X280275Y-5750D02*X281775D01*
X283275Y-3500D02*Y-9500D01*
Y-7250D02*X284025Y-6500D01*
X285525D01*
X286275Y-7250D01*
Y-9500D01*
X288825D02*X291075D01*
X288075Y-8750D02*X288825Y-9500D01*
X288075Y-7250D02*Y-8750D01*
Y-7250D02*X288825Y-6500D01*
X290325D01*
X291075Y-7250D01*
X288075Y-8000D02*X291075D01*
Y-7250D02*Y-8000D01*
X296325Y-6500D02*X298575D01*
X295575Y-7250D02*X296325Y-6500D01*
X295575Y-7250D02*Y-8750D01*
X296325Y-9500D01*
X298575D01*
X301125D02*X303375D01*
X300375Y-8750D02*X301125Y-9500D01*
X300375Y-7250D02*Y-8750D01*
Y-7250D02*X301125Y-6500D01*
X302625D01*
X303375Y-7250D01*
X300375Y-8000D02*X303375D01*
Y-7250D02*Y-8000D01*
X305925Y-7250D02*Y-9500D01*
Y-7250D02*X306675Y-6500D01*
X307425D01*
X308175Y-7250D01*
Y-9500D01*
X305175Y-6500D02*X305925Y-7250D01*
X310725Y-3500D02*Y-8750D01*
X311475Y-9500D01*
X309975Y-5750D02*X311475D01*
X313725Y-9500D02*X315975D01*
X312975Y-8750D02*X313725Y-9500D01*
X312975Y-7250D02*Y-8750D01*
Y-7250D02*X313725Y-6500D01*
X315225D01*
X315975Y-7250D01*
X312975Y-8000D02*X315975D01*
Y-7250D02*Y-8000D01*
X318525Y-7250D02*Y-9500D01*
Y-7250D02*X319275Y-6500D01*
X320775D01*
X317775D02*X318525Y-7250D01*
X322575Y-3500D02*Y-8750D01*
X323325Y-9500D01*
G54D39*X324825Y-5000D02*Y-5150D01*
G54D38*Y-7250D02*Y-9500D01*
X327075Y-7250D02*Y-9500D01*
Y-7250D02*X327825Y-6500D01*
X328575D01*
X329325Y-7250D01*
Y-9500D01*
X326325Y-6500D02*X327075Y-7250D01*
X331875Y-9500D02*X334125D01*
X331125Y-8750D02*X331875Y-9500D01*
X331125Y-7250D02*Y-8750D01*
Y-7250D02*X331875Y-6500D01*
X333375D01*
X334125Y-7250D01*
X331125Y-8000D02*X334125D01*
Y-7250D02*Y-8000D01*
X338625Y-7250D02*Y-8750D01*
Y-7250D02*X339375Y-6500D01*
X340875D01*
X341625Y-7250D01*
Y-8750D01*
X340875Y-9500D02*X341625Y-8750D01*
X339375Y-9500D02*X340875D01*
X338625Y-8750D02*X339375Y-9500D01*
X344175Y-4250D02*Y-9500D01*
Y-4250D02*X344925Y-3500D01*
X345675D01*
X343425Y-6500D02*X344925D01*
X350625Y-3500D02*Y-8750D01*
X351375Y-9500D01*
X349875Y-5750D02*X351375D01*
X352875Y-3500D02*Y-9500D01*
Y-7250D02*X353625Y-6500D01*
X355125D01*
X355875Y-7250D01*
Y-9500D01*
G54D39*X357675Y-5000D02*Y-5150D01*
G54D38*Y-7250D02*Y-9500D01*
X359925D02*X362175D01*
X362925Y-8750D01*
X362175Y-8000D02*X362925Y-8750D01*
X359925Y-8000D02*X362175D01*
X359175Y-7250D02*X359925Y-8000D01*
X359175Y-7250D02*X359925Y-6500D01*
X362175D01*
X362925Y-7250D01*
X359175Y-8750D02*X359925Y-9500D01*
X368175Y-7250D02*Y-11750D01*
X367425Y-6500D02*X368175Y-7250D01*
X368925Y-6500D01*
X370425D01*
X371175Y-7250D01*
Y-8750D01*
X370425Y-9500D02*X371175Y-8750D01*
X368925Y-9500D02*X370425D01*
X368175Y-8750D02*X368925Y-9500D01*
X375225Y-6500D02*X375975Y-7250D01*
X373725Y-6500D02*X375225D01*
X372975Y-7250D02*X373725Y-6500D01*
X372975Y-7250D02*Y-8750D01*
X373725Y-9500D01*
X375975Y-6500D02*Y-8750D01*
X376725Y-9500D01*
X373725D02*X375225D01*
X375975Y-8750D01*
X379275Y-3500D02*Y-8750D01*
X380025Y-9500D01*
X378525Y-5750D02*X380025D01*
X381525Y-3500D02*Y-9500D01*
Y-7250D02*X382275Y-6500D01*
X383775D01*
X384525Y-7250D01*
Y-9500D01*
X200750Y528500D02*Y522500D01*
X202700Y528500D02*X203750Y527450D01*
Y523550D01*
X202700Y522500D02*X203750Y523550D01*
X200000Y522500D02*X202700D01*
X200000Y528500D02*X202700D01*
X207800Y525500D02*X208550Y524750D01*
X206300Y525500D02*X207800D01*
X205550Y524750D02*X206300Y525500D01*
X205550Y524750D02*Y523250D01*
X206300Y522500D01*
X208550Y525500D02*Y523250D01*
X209300Y522500D01*
X206300D02*X207800D01*
X208550Y523250D01*
X211850Y528500D02*Y523250D01*
X212600Y522500D01*
X211100Y526250D02*X212600D01*
X214850Y522500D02*X217100D01*
X214100Y523250D02*X214850Y522500D01*
X214100Y524750D02*Y523250D01*
Y524750D02*X214850Y525500D01*
X216350D01*
X217100Y524750D01*
X214100Y524000D02*X217100D01*
Y524750D02*Y524000D01*
X218900Y526250D02*X219650D01*
X218900Y524750D02*X219650D01*
X227150Y528500D02*X227900Y527750D01*
X224900Y528500D02*X227150D01*
X224150Y527750D02*X224900Y528500D01*
X224150Y527750D02*Y526250D01*
X224900Y525500D01*
X227150D01*
X227900Y524750D01*
Y523250D01*
X227150Y522500D02*X227900Y523250D01*
X224900Y522500D02*X227150D01*
X224150Y523250D02*X224900Y522500D01*
X231950Y525500D02*X232700Y524750D01*
X230450Y525500D02*X231950D01*
X229700Y524750D02*X230450Y525500D01*
X229700Y524750D02*Y523250D01*
X230450Y522500D01*
X232700Y525500D02*Y523250D01*
X233450Y522500D01*
X230450D02*X231950D01*
X232700Y523250D01*
X236000Y528500D02*Y523250D01*
X236750Y522500D01*
X235250Y526250D02*X236750D01*
X240950Y527300D02*X242150Y528500D01*
Y522500D01*
X240950D02*X243200D01*
X245000Y528500D02*X248000D01*
X245000D02*Y525500D01*
X245750Y526250D01*
X247250D01*
X248000Y525500D01*
Y523250D01*
X247250Y522500D02*X248000Y523250D01*
X245750Y522500D02*X247250D01*
X245000Y523250D02*X245750Y522500D01*
X253550Y528500D02*X254750D01*
Y523250D01*
X254000Y522500D02*X254750Y523250D01*
X253250Y522500D02*X254000D01*
X252500Y523250D02*X253250Y522500D01*
X252500Y524000D02*Y523250D01*
X256550Y525500D02*Y523250D01*
X257300Y522500D01*
X258800D01*
X259550Y523250D01*
Y525500D02*Y523250D01*
X262100Y524750D02*Y522500D01*
Y524750D02*X262850Y525500D01*
X263600D01*
X264350Y524750D01*
Y522500D01*
X261350Y525500D02*X262100Y524750D01*
X268850Y527750D02*X269600Y528500D01*
X271850D01*
X272600Y527750D01*
Y526250D01*
X268850Y522500D02*X272600Y526250D01*
X268850Y522500D02*X272600D01*
X274400Y523250D02*X275150Y522500D01*
X274400Y527750D02*Y523250D01*
Y527750D02*X275150Y528500D01*
X276650D01*
X277400Y527750D01*
Y523250D01*
X276650Y522500D02*X277400Y523250D01*
X275150Y522500D02*X276650D01*
X274400Y524000D02*X277400Y527000D01*
X279200Y527300D02*X280400Y528500D01*
Y522500D01*
X279200D02*X281450D01*
X283250Y527750D02*X284000Y528500D01*
X285500D01*
X286250Y527750D01*
X285500Y522500D02*X286250Y523250D01*
X284000Y522500D02*X285500D01*
X283250Y523250D02*X284000Y522500D01*
Y525800D02*X285500D01*
X286250Y527750D02*Y526550D01*
Y525050D02*Y523250D01*
Y525050D02*X285500Y525800D01*
X286250Y526550D02*X285500Y525800D01*
X290750Y523250D02*X291500Y522500D01*
X290750Y527750D02*Y523250D01*
Y527750D02*X291500Y528500D01*
X293000D01*
X293750Y527750D01*
Y523250D01*
X293000Y522500D02*X293750Y523250D01*
X291500Y522500D02*X293000D01*
X290750Y524000D02*X293750Y527000D01*
X295550Y524750D02*X298550Y528500D01*
X295550Y524750D02*X299300D01*
X298550Y528500D02*Y522500D01*
X301100Y526250D02*X301850D01*
X301100Y524750D02*X301850D01*
X303650Y528500D02*X306650D01*
X303650D02*Y525500D01*
X304400Y526250D01*
X305900D01*
X306650Y525500D01*
Y523250D01*
X305900Y522500D02*X306650Y523250D01*
X304400Y522500D02*X305900D01*
X303650Y523250D02*X304400Y522500D01*
X310700Y528500D02*X311450Y527750D01*
X309200Y528500D02*X310700D01*
X308450Y527750D02*X309200Y528500D01*
X308450Y527750D02*Y523250D01*
X309200Y522500D01*
X310700Y525800D02*X311450Y525050D01*
X308450Y525800D02*X310700D01*
X309200Y522500D02*X310700D01*
X311450Y523250D01*
Y525050D02*Y523250D01*
X313250Y526250D02*X314000D01*
X313250Y524750D02*X314000D01*
X315800Y527300D02*X317000Y528500D01*
Y522500D01*
X315800D02*X318050D01*
X319850Y527300D02*X321050Y528500D01*
Y522500D01*
X319850D02*X322100D01*
X326600Y527000D02*Y522500D01*
Y527000D02*X327650Y528500D01*
X329300D01*
X330350Y527000D01*
Y522500D01*
X326600Y525500D02*X330350D01*
X332150Y528500D02*Y522500D01*
Y528500D02*X334400Y525500D01*
X336650Y528500D01*
Y522500D01*
X344150Y528500D02*X344900Y527750D01*
X341900Y528500D02*X344150D01*
X341150Y527750D02*X341900Y528500D01*
X341150Y527750D02*Y523250D01*
X341900Y522500D01*
X344150D01*
X344900Y523250D01*
Y524750D02*Y523250D01*
X344150Y525500D02*X344900Y524750D01*
X342650Y525500D02*X344150D01*
X346700Y528500D02*Y522500D01*
Y528500D02*X348950Y525500D01*
X351200Y528500D01*
Y522500D01*
X353000Y528500D02*X356000D01*
X354500D02*Y522500D01*
X360500Y528500D02*Y523250D01*
X361250Y522500D01*
X362750D01*
X363500Y523250D01*
Y528500D02*Y523250D01*
X365300Y528500D02*X368300D01*
X366800D02*Y522500D01*
X371150D02*X373100D01*
X370100Y523550D02*X371150Y522500D01*
X370100Y527450D02*Y523550D01*
Y527450D02*X371150Y528500D01*
X373100D01*
X200000Y542000D02*Y537500D01*
Y542000D02*X201050Y543500D01*
X202700D01*
X203750Y542000D01*
Y537500D01*
X200000Y540500D02*X203750D01*
X205550D02*Y538250D01*
X206300Y537500D01*
X207800D01*
X208550Y538250D01*
Y540500D02*Y538250D01*
X211100Y543500D02*Y538250D01*
X211850Y537500D01*
X210350Y541250D02*X211850D01*
X213350Y543500D02*Y537500D01*
Y539750D02*X214100Y540500D01*
X215600D01*
X216350Y539750D01*
Y537500D01*
X218150Y539750D02*Y538250D01*
Y539750D02*X218900Y540500D01*
X220400D01*
X221150Y539750D01*
Y538250D01*
X220400Y537500D02*X221150Y538250D01*
X218900Y537500D02*X220400D01*
X218150Y538250D02*X218900Y537500D01*
X223700Y539750D02*Y537500D01*
Y539750D02*X224450Y540500D01*
X225950D01*
X222950D02*X223700Y539750D01*
X227750Y541250D02*X228500D01*
X227750Y539750D02*X228500D01*
X200000Y558500D02*X203000D01*
X201500D02*Y552500D01*
G54D39*X204800Y557000D02*Y556850D01*
G54D38*Y554750D02*Y552500D01*
X207050Y558500D02*Y553250D01*
X207800Y552500D01*
X206300Y556250D02*X207800D01*
X209300Y558500D02*Y553250D01*
X210050Y552500D01*
X212300D02*X214550D01*
X211550Y553250D02*X212300Y552500D01*
X211550Y554750D02*Y553250D01*
Y554750D02*X212300Y555500D01*
X213800D01*
X214550Y554750D01*
X211550Y554000D02*X214550D01*
Y554750D02*Y554000D01*
X216350Y556250D02*X217100D01*
X216350Y554750D02*X217100D01*
X221600Y553250D02*X222350Y552500D01*
X221600Y557750D02*X222350Y558500D01*
X221600Y557750D02*Y553250D01*
X224150Y555500D02*Y553250D01*
X224900Y552500D01*
X226400D01*
X227150Y553250D01*
Y555500D02*Y553250D01*
X229700Y554750D02*Y552500D01*
Y554750D02*X230450Y555500D01*
X231200D01*
X231950Y554750D01*
Y552500D01*
X228950Y555500D02*X229700Y554750D01*
X233750Y558500D02*Y552500D01*
Y554750D02*X236000Y552500D01*
X233750Y554750D02*X235250Y556250D01*
X238550Y554750D02*Y552500D01*
Y554750D02*X239300Y555500D01*
X240050D01*
X240800Y554750D01*
Y552500D01*
X237800Y555500D02*X238550Y554750D01*
X242600D02*Y553250D01*
Y554750D02*X243350Y555500D01*
X244850D01*
X245600Y554750D01*
Y553250D01*
X244850Y552500D02*X245600Y553250D01*
X243350Y552500D02*X244850D01*
X242600Y553250D02*X243350Y552500D01*
X247400Y555500D02*Y553250D01*
X248150Y552500D01*
X248900D01*
X249650Y553250D01*
Y555500D02*Y553250D01*
X250400Y552500D01*
X251150D01*
X251900Y553250D01*
Y555500D02*Y553250D01*
X254450Y554750D02*Y552500D01*
Y554750D02*X255200Y555500D01*
X255950D01*
X256700Y554750D01*
Y552500D01*
X253700Y555500D02*X254450Y554750D01*
X258500Y558500D02*X259250Y557750D01*
Y553250D01*
X258500Y552500D02*X259250Y553250D01*
X263750Y555500D02*X266750D01*
X271250Y558500D02*Y552500D01*
Y558500D02*X274250D01*
X271250Y555800D02*X273500D01*
X278300Y555500D02*X279050Y554750D01*
X276800Y555500D02*X278300D01*
X276050Y554750D02*X276800Y555500D01*
X276050Y554750D02*Y553250D01*
X276800Y552500D01*
X279050Y555500D02*Y553250D01*
X279800Y552500D01*
X276800D02*X278300D01*
X279050Y553250D01*
X281600Y558500D02*Y552500D01*
Y553250D02*X282350Y552500D01*
X283850D01*
X284600Y553250D01*
Y554750D02*Y553250D01*
X283850Y555500D02*X284600Y554750D01*
X282350Y555500D02*X283850D01*
X281600Y554750D02*X282350Y555500D01*
X287150Y554750D02*Y552500D01*
Y554750D02*X287900Y555500D01*
X289400D01*
X286400D02*X287150Y554750D01*
G54D39*X291200Y557000D02*Y556850D01*
G54D38*Y554750D02*Y552500D01*
X293450Y555500D02*X295700D01*
X292700Y554750D02*X293450Y555500D01*
X292700Y554750D02*Y553250D01*
X293450Y552500D01*
X295700D01*
X299750Y555500D02*X300500Y554750D01*
X298250Y555500D02*X299750D01*
X297500Y554750D02*X298250Y555500D01*
X297500Y554750D02*Y553250D01*
X298250Y552500D01*
X300500Y555500D02*Y553250D01*
X301250Y552500D01*
X298250D02*X299750D01*
X300500Y553250D01*
X303800Y558500D02*Y553250D01*
X304550Y552500D01*
X303050Y556250D02*X304550D01*
G54D39*X306050Y557000D02*Y556850D01*
G54D38*Y554750D02*Y552500D01*
X307550Y554750D02*Y553250D01*
Y554750D02*X308300Y555500D01*
X309800D01*
X310550Y554750D01*
Y553250D01*
X309800Y552500D02*X310550Y553250D01*
X308300Y552500D02*X309800D01*
X307550Y553250D02*X308300Y552500D01*
X313100Y554750D02*Y552500D01*
Y554750D02*X313850Y555500D01*
X314600D01*
X315350Y554750D01*
Y552500D01*
X312350Y555500D02*X313100Y554750D01*
X320600Y558500D02*Y552500D01*
X322550Y558500D02*X323600Y557450D01*
Y553550D01*
X322550Y552500D02*X323600Y553550D01*
X319850Y552500D02*X322550D01*
X319850Y558500D02*X322550D01*
X326150Y554750D02*Y552500D01*
Y554750D02*X326900Y555500D01*
X328400D01*
X325400D02*X326150Y554750D01*
X332450Y555500D02*X333200Y554750D01*
X330950Y555500D02*X332450D01*
X330200Y554750D02*X330950Y555500D01*
X330200Y554750D02*Y553250D01*
X330950Y552500D01*
X333200Y555500D02*Y553250D01*
X333950Y552500D01*
X330950D02*X332450D01*
X333200Y553250D01*
X335750Y555500D02*Y553250D01*
X336500Y552500D01*
X337250D01*
X338000Y553250D01*
Y555500D02*Y553250D01*
X338750Y552500D01*
X339500D01*
X340250Y553250D01*
Y555500D02*Y553250D01*
G54D39*X342050Y557000D02*Y556850D01*
G54D38*Y554750D02*Y552500D01*
X344300Y554750D02*Y552500D01*
Y554750D02*X345050Y555500D01*
X345800D01*
X346550Y554750D01*
Y552500D01*
X343550Y555500D02*X344300Y554750D01*
X350600Y555500D02*X351350Y554750D01*
X349100Y555500D02*X350600D01*
X348350Y554750D02*X349100Y555500D01*
X348350Y554750D02*Y553250D01*
X349100Y552500D01*
X350600D01*
X351350Y553250D01*
X348350Y551000D02*X349100Y550250D01*
X350600D01*
X351350Y551000D01*
Y555500D02*Y551000D01*
M02*
